<?xml version="1.0" encoding="UTF-8" standalone="no"?>
<svg
   xmlns:dc="http://purl.org/dc/elements/1.1/"
   xmlns:cc="http://creativecommons.org/ns#"
   xmlns:rdf="http://www.w3.org/1999/02/22-rdf-syntax-ns#"
   xmlns:svg="http://www.w3.org/2000/svg"
   xmlns="http://www.w3.org/2000/svg"
   xmlns:sodipodi="http://sodipodi.sourceforge.net/DTD/sodipodi-0.dtd"
   xmlns:inkscape="http://www.inkscape.org/namespaces/inkscape"
   id="svg871"
   version="1.1"
   viewBox="0 0 1016 571.5"
   height="2160"
   width="3840"
   sodipodi:docname="long-shadow.svg"
   inkscape:version="1.0.1 (unknown)"
   inkscape:export-filename="/home/enfaukerus/repo/art/long-shadow/long-shadow-3840x2160.png"
   inkscape:export-xdpi="96"
   inkscape:export-ydpi="96">
  <defs
     id="defs865">
    <filter
       inkscape:collect="always"
       style="color-interpolation-filters:sRGB"
       id="filter954"
       x="-0.005087"
       width="1.010174"
       y="-0.012315535"
       height="1.0246311">
      <feGaussianBlur
         inkscape:collect="always"
         stdDeviation="0.43029195"
         id="feGaussianBlur956" />
    </filter>
  </defs>
  <sodipodi:namedview
     id="base"
     pagecolor="#ffffff"
     bordercolor="#666666"
     borderopacity="1.0"
     inkscape:pageopacity="0.0"
     inkscape:pageshadow="2"
     inkscape:zoom="0.24748737"
     inkscape:cx="1272.2189"
     inkscape:cy="1028.3912"
     inkscape:document-units="mm"
     inkscape:current-layer="g1643"
     inkscape:document-rotation="0"
     showgrid="false"
     inkscape:window-width="1920"
     inkscape:window-height="1048"
     inkscape:window-x="0"
     inkscape:window-y="32"
     inkscape:window-maximized="1"
     units="px">
    <sodipodi:guide
       position="0,571.5"
       orientation="0,3840"
       id="guide1916" />
    <sodipodi:guide
       position="1016,571.5"
       orientation="2160,0"
       id="guide1918" />
    <sodipodi:guide
       position="1016,0"
       orientation="0,-3840"
       id="guide1920" />
    <sodipodi:guide
       position="0,0"
       orientation="-2160,0"
       id="guide1922" />
  </sodipodi:namedview>
  <metadata
     id="metadata868">
    <rdf:RDF>
      <cc:Work
         rdf:about="">
        <dc:format>image/svg+xml</dc:format>
        <dc:type
           rdf:resource="http://purl.org/dc/dcmitype/StillImage" />
        <dc:title />
      </cc:Work>
    </rdf:RDF>
  </metadata>
  <g
     inkscape:label="Layer 1"
     inkscape:groupmode="layer"
     id="layer1"
     sodipodi:insensitive="true">
    <rect
       style="display:inline;fill:#292e29;fill-opacity:1;fill-rule:evenodd;stroke:#9393ac;stroke-width:0"
       id="rect1924"
       width="1016"
       height="571.5"
       x="-1.5304458e-05"
       y="8.669806e-07"
       inkscape:label="bg" />
    <g
       id="g1643"
       style="display:inline"
       inkscape:label="logo"
       transform="matrix(0.52916666,0,0,0.52916666,440.27556,230.0632)">
      <path
         id="path1719"
         style="fill:#363d36;fill-opacity:1;stroke-width:1"
         d="m 42.656047,43.850135 c -12.8888,17.876 -19.8402,39.346765 -19.874,61.384765 0,29.06 11.77845,55.3681 30.822251,74.4121 L 760.71076,886.75447 c 19.044,19.044 45.3531,30.82225 74.41305,30.82225 22.031,-0.047 43.4934,-7.0074 61.3594,-19.9004 l -23.9033,-23.90235 -84.2422,-84.24216 -14.62695,-14.627 -3.46585,-3.4658 -20.48145,-20.4824 -584.29001,-584.29006 c -2.5e-4,1.5e-4 0,-1.5e-4 0,0 z"
         inkscape:label="bottom-shadow" />
      <path
         d="m 189.37588,190.56963 -23.90269,-23.90268 c -11.27745,6.89859 -24.23629,10.55974 -37.45637,10.58221 -39.772417,8e-5 -72.014343,-32.24185 -72.014264,-72.01426 0.03183,-13.215382 3.699547,-26.167196 10.60151,-37.437081 L 42.656067,43.849832 C 29.76725,61.725769 22.815686,83.196977 22.781918,105.2349 c 0,58.11962 47.115274,105.2349 105.234902,105.2349 22.03188,-0.0468 43.49344,-7.00726 61.35906,-19.90017 z"
         fill="#478061"
         id="path1496"
         inkscape:label="bottom" />
      <path
         id="path1787"
         style="display:inline;fill:#728078;fill-opacity:1;stroke-width:1"
         d="M 128.0174,-4.5130471e-4 C 105.9854,0.0463487 84.523598,7.0070088 66.657998,19.899939 l 23.9033,23.903321 683.204162,683.2041 23.90135,23.90235 c 11.278,-6.899 24.23705,-10.56 37.457,-10.583 19.886,0 37.8889,8.06175 50.9209,21.09375 l -54.249,-54.24905 c 1.10795,-0.0375 2.21685,-0.062 3.3281,-0.0645 z"
         inkscape:label="top-shadow2" />
      <path
         id="path1869"
         style="fill:#4a534d;fill-opacity:1;stroke-width:1"
         d="m 127.9998,71.73195 c -18.503,0 -33.502951,14.99945 -33.502951,33.50295 0,8.886 3.5299,17.40745 9.813501,23.69045 l 707.10546,707.10647 c 6.283,6.28295 14.8054,9.81345 23.6914,9.81345 8.885,0 17.4065,-3.5305 23.6895,-9.81345 6.283,-6.283 9.81345,-14.8045 9.81345,-23.68951 0,-8.886 -3.53045,-17.4084 -9.81345,-23.6914 L 151.69025,81.54445 c -6.283,-6.283 -14.80445,-9.8125 -23.69045,-9.8125 z"
         inkscape:label="center-shadow" />
      <path
         id="path1795"
         style="display:inline;fill:#728078;fill-opacity:1;stroke-width:1"
         d="M 128.0174,-4.5130471e-4 233.25175,105.2339 c 0,0 0,0 0,0 0,1.11105 -0.026,2.22035 -0.0625,3.3281 l -54.25,-54.249975 c 13.032,13.031975 21.0918,31.035575 21.0918,50.921875 -0.032,13.215 -3.6986,26.1675 -10.6006,37.4375 l 23.9473,23.94725 707.10647,707.10747 c 12.889,-17.876 19.841,-39.3468 19.875,-61.38481 0,-29.06 -11.77925,-55.36905 -30.82326,-74.41305 L 202.4295,30.822789 C 183.3855,11.778989 157.0774,-4.5130471e-4 128.0174,-4.5130471e-4 Z"
         inkscape:label="top-shadow" />
      <path
         id="circle1498"
         style="fill:#abc2ab"
         d="M 161.50336,105.2349 A 33.503357,33.503357 0 0 1 128,138.73826 33.503357,33.503357 0 0 1 94.496643,105.2349 33.503357,33.503357 0 0 1 128,71.731544 33.503357,33.503357 0 0 1 161.50336,105.2349 Z"
         sodipodi:insensitive="true"
         inkscape:label="center" />
      <path
         d="M 128.01682,0 C 105.98494,0.04678314 84.523372,7.0072685 66.657757,19.900168 l 23.902685,23.902684 c 11.277448,-6.898594 24.236288,-10.559734 37.456378,-10.582214 39.77241,-7.9e-5 72.01434,32.241846 72.01426,72.014262 -0.0318,13.21538 -3.69956,26.16719 -10.60151,37.43708 l 23.94799,23.94799 c 12.8888,-17.87595 19.8404,-39.34715 19.87417,-61.38507 C 233.25173,47.115274 186.13644,0 128.01682,0 Z"
         fill="#abc2ab"
         id="path1494"
         style="display:inline"
         inkscape:label="top" />
      <path
         id="path924"
         style="display:inline;fill:#292e29;fill-opacity:1;stroke-width:2"
         d="m 1668.6582,1037.7559 c -1.3935,0 -2.4165,0.2875 -3.0723,0.8613 -0.5738,0.4918 -0.8613,1.1471 -0.8613,1.9668 v 0.7383 c 0,0.2459 0.082,0.4493 0.2461,0.6132 l 41.5586,77.2149 c 0.4098,0.8197 0.9419,1.4358 1.5977,1.8457 0.6557,0.4098 1.5575,0.6133 2.705,0.6133 h 8.1153 c 1.8852,0 3.9744,-0.8196 6.2695,-2.459 l 111.6426,-77.3359 c 1.3115,-1.0656 1.9668,-1.9674 1.9668,-2.7051 0,-0.9017 -0.5321,-1.3535 -1.5977,-1.3535 h -7.9922 c -2.623,0 -5.1229,0.8196 -7.5,2.4589 l -71.6816,49.3047 -25.5742,-49.3047 c -0.8197,-1.6393 -2.5822,-2.4589 -5.2871,-2.4589 z m 205.459,0 c -5.4919,0 -10.8614,0.7785 -16.1074,2.3359 -5.246,1.4754 -10.2458,3.5254 -15,6.1484 -4.6723,2.623 -9.0168,5.7372 -13.0332,9.3438 -3.9345,3.6066 -7.3773,7.5423 -10.3282,11.8047 -2.8689,4.2624 -5.1223,8.7281 -6.7617,13.4004 -1.6393,4.6722 -2.459,9.4275 -2.459,14.2636 0,3.7706 0.5732,7.2955 1.7207,10.5743 1.1476,3.1967 2.8279,5.9822 5.0411,8.3593 2.2131,2.3771 4.9595,4.2628 8.2382,5.6563 3.2788,1.3115 7.0502,1.9668 11.3125,1.9668 h 60.2461 c 5.328,0 10.6154,-0.7375 15.8614,-2.2129 5.246,-1.5574 10.2458,-3.6465 15,-6.2695 4.7541,-2.705 9.1397,-5.8622 13.1562,-9.4688 4.0165,-3.6886 7.5003,-7.6634 10.4512,-11.9258 2.9508,-4.2623 5.2453,-8.7301 6.8847,-13.4023 1.7214,-4.7542 2.5821,-9.5486 2.5821,-14.3848 0,-3.7705 -0.5731,-7.2544 -1.7207,-10.4512 -1.1476,-3.1967 -2.8279,-5.9431 -5.041,-8.2382 -2.2132,-2.3771 -5.0007,-4.2217 -8.3614,-5.5332 -3.2788,-1.3115 -7.0892,-1.9668 -11.4336,-1.9668 z m 115.539,0 c -2.1311,0 -3.6882,1.066 -4.6718,3.1972 l -34.5489,77.3379 c -0.2458,0.7377 -0.3691,1.352 -0.3691,1.8438 0,0.9836 0.7375,1.4746 2.2129,1.4746 h 42.418 c 2.1312,0 3.6882,-1.1052 4.6718,-3.3184 l 34.4278,-77.3379 c 0.3278,-0.5738 0.4922,-1.1078 0.4922,-1.5996 0,-1.0656 -0.7786,-1.5976 -2.336,-1.5976 z m 60.4532,0 c -2.1312,0 -3.6883,1.066 -4.6719,3.1972 l -34.5508,77.3379 c -0.2458,0.7377 -0.3691,1.352 -0.3691,1.8438 0,0.9836 0.7394,1.4746 2.2148,1.4746 h 98.8535 c 5.1641,0 10.3282,-0.7375 15.4922,-2.2129 5.164,-1.4754 10.0817,-3.4824 14.7539,-6.0235 4.7542,-2.6229 9.1398,-5.739 13.1563,-9.3457 4.0984,-3.6066 7.6233,-7.5403 10.5742,-11.8027 3.0329,-4.2624 5.4095,-8.7712 7.1309,-13.5254 1.7213,-4.8361 2.582,-9.7538 2.582,-14.7539 0,-3.7705 -0.5732,-7.2544 -1.7207,-10.4512 -1.1476,-3.1967 -2.8279,-5.9431 -5.041,-8.2382 -2.2132,-2.3771 -4.9596,-4.2217 -8.2383,-5.5332 -3.2787,-1.3115 -7.0501,-1.9668 -11.3125,-1.9668 z m -161.9746,14.3847 h 16.7207 c 3.2787,0 5.7375,0.4519 7.3769,1.3535 1.7214,0.9017 2.5821,2.5409 2.5821,4.918 0,2.8689 -1.3517,7.1724 -4.0567,12.9102 l -5.9023,13.4023 c -1.8853,4.1804 -3.7299,7.7053 -5.5332,10.5742 -1.8033,2.8689 -3.689,5.1635 -5.6563,6.8848 -1.9672,1.7213 -4.0153,2.9908 -6.1465,3.8105 -2.1311,0.7377 -4.4667,1.1075 -7.0078,1.1075 h -16.8457 c -2.623,0 -4.6299,-0.491 -6.0234,-1.4746 -1.3935,-1.0656 -2.0918,-2.787 -2.0918,-5.1641 0,-3.5247 1.559,-8.771 4.6738,-15.7383 l 5.9004,-13.4023 c 1.6394,-3.6886 3.2375,-6.7617 4.7949,-9.2207 1.6394,-2.4591 3.3197,-4.4269 5.041,-5.9024 1.7214,-1.4754 3.566,-2.5004 5.5332,-3.0742 2.0493,-0.6557 4.2636,-0.9844 6.6407,-0.9844 z m 200.9511,0 h 24.959 c 3.1148,0 5.4915,0.4519 7.1309,1.3535 1.6393,0.9017 2.459,2.5409 2.459,4.918 0,2.705 -1.3106,7.0084 -3.9336,12.9102 l -5.9024,13.4023 c -1.8852,4.1804 -3.7709,7.7053 -5.6562,10.5742 -1.8033,2.787 -3.689,5.0815 -5.6563,6.8848 -1.8852,1.7214 -3.8922,2.9908 -6.0234,3.8105 -2.1312,0.7377 -4.4257,1.1075 -6.8848,1.1075 h -24.8379 z"
         transform="matrix(0.50000001,0,0,0.50000001,-832.01682,-434.76511)"
         inkscape:label="text" />
      <path
         id="path1500"
         style="display:inline;opacity:0.5;fill:#000000;stroke-width:2;filter:url(#filter954)"
         d="m 1668.6582,1037.7559 c -1.3935,0 -2.4165,0.2875 -3.0723,0.8613 -0.5738,0.4918 -0.8613,1.1471 -0.8613,1.9668 v 0.7383 c 0,0.2459 0.082,0.4493 0.2461,0.6132 l 41.5586,77.2149 c 0.4098,0.8197 0.9419,1.4358 1.5977,1.8457 0.6557,0.4098 1.5575,0.6133 2.705,0.6133 h 2.8789 c -2.6975,-13.4516 -4.1132,-27.3655 -4.1132,-41.6114 0.022,-14.2685 1.5021,-28.4165 4.3574,-42.2421 z m 161.2129,0 5.2578,5.2578 1.7305,-1.1992 c 1.3115,-1.0656 1.9668,-1.9674 1.9668,-2.7051 0,-0.9017 -0.5321,-1.3535 -1.5977,-1.3535 z m 37.8613,0.3613 c -3.2864,0.3708 -6.5276,1.0261 -9.7226,1.9746 -5.246,1.4754 -10.2458,3.5254 -15,6.1484 -0.9888,0.5551 -1.9605,1.1353 -2.92,1.7344 l 15.0977,15.0977 c 0.061,-0.2352 0.1352,-0.4651 0.1992,-0.6993 a 67.006713,67.006713 0 0 1 0.3828,-1.3476 c 0.1986,-0.6734 0.408,-1.3415 0.627,-2.0059 a 67.006713,67.006713 0 0 1 0.3301,-0.9746 c 0.2425,-0.6993 0.4949,-1.3934 0.7597,-2.082 a 67.006713,67.006713 0 0 1 0.4043,-1.0234 c 0.2751,-0.6816 0.5608,-1.3572 0.8574,-2.0274 a 67.006713,67.006713 0 0 1 0.4688,-1.0391 c 0.268,-0.5785 0.5423,-1.1531 0.8262,-1.7226 a 67.006713,67.006713 0 0 1 0.75,-1.4609 c 0.2081,-0.3929 0.4191,-0.7837 0.6347,-1.1719 a 67.006713,67.006713 0 0 1 1.0547,-1.836 c 0.1606,-0.2687 0.322,-0.5364 0.4864,-0.8027 a 67.006713,67.006713 0 0 1 1.3007,-2.0312 c 0.1305,-0.1955 0.2621,-0.39 0.3946,-0.584 a 67.006713,67.006713 0 0 1 1.5703,-2.2071 c 0.073,-0.098 0.1467,-0.1969 0.2207,-0.2949 a 67.006713,67.006713 0 0 1 1.2773,-1.6445 z"
         transform="matrix(0.50000001,0,0,0.50000001,-832.01682,-434.76511)"
         inkscape:label="text-back" />
    </g>
  </g>
</svg>
