<?xml version="1.0" encoding="UTF-8" standalone="no"?>
<svg
   xmlns:dc="http://purl.org/dc/elements/1.1/"
   xmlns:cc="http://creativecommons.org/ns#"
   xmlns:rdf="http://www.w3.org/1999/02/22-rdf-syntax-ns#"
   xmlns:svg="http://www.w3.org/2000/svg"
   xmlns="http://www.w3.org/2000/svg"
   xmlns:sodipodi="http://sodipodi.sourceforge.net/DTD/sodipodi-0.dtd"
   xmlns:inkscape="http://www.inkscape.org/namespaces/inkscape"
   width="1920"
   height="1080"
   viewBox="0 0 508 285.75001"
   version="1.1"
   id="svg8"
   sodipodi:docname="gruuvy-desert.svg"
   inkscape:export-filename="/home/enfaukerus/repo/art/gruuvy/gruuvy-desert-1920x1080.png"
   inkscape:export-xdpi="134.91"
   inkscape:export-ydpi="134.91"
   inkscape:version="1.0.1 (unknown)">
  <defs
     id="defs2" />
  <sodipodi:namedview
     id="base"
     pagecolor="#ffffff"
     bordercolor="#666666"
     borderopacity="1.0"
     inkscape:pageopacity="0.0"
     inkscape:pageshadow="2"
     inkscape:zoom="0.42137591"
     inkscape:cx="781.61049"
     inkscape:cy="368.95737"
     inkscape:document-units="mm"
     inkscape:current-layer="layer1"
     inkscape:document-rotation="0"
     showgrid="false"
     units="px"
     width="1366px"
     inkscape:window-width="1920"
     inkscape:window-height="1048"
     inkscape:window-x="0"
     inkscape:window-y="32"
     inkscape:window-maximized="1">
    <sodipodi:guide
       position="0,285.75"
       orientation="0,1920"
       id="guide2676" />
    <sodipodi:guide
       position="508.00001,285.75"
       orientation="1080,0"
       id="guide2678" />
    <sodipodi:guide
       position="508.00001,0"
       orientation="0,-1920"
       id="guide2680" />
    <sodipodi:guide
       position="0,0"
       orientation="-1080,0"
       id="guide2682" />
  </sodipodi:namedview>
  <metadata
     id="metadata5">
    <rdf:RDF>
      <cc:Work
         rdf:about="">
        <dc:format>image/svg+xml</dc:format>
        <dc:type
           rdf:resource="http://purl.org/dc/dcmitype/StillImage" />
        <dc:title></dc:title>
      </cc:Work>
    </rdf:RDF>
  </metadata>
  <rect
     style="display:inline;fill:#3c3836;fill-opacity:1;fill-rule:evenodd;stroke:#9393ac;stroke-width:0"
     id="rect18"
     width="507.90704"
     height="285.63461"
     x="0"
     y="4.9999999e-06"
     rx="0"
     ry="0"
     inkscape:label="bg" />
  <g
     id="g951"
     transform="matrix(0.37182067,0,0,0.37192006,206.36673,103.67833)"
     inkscape:label="void-logo">
    <g
       id="g2666"
       inkscape:label="shape">
      <path
         d="M 128.01682,0 C 105.98494,0.04678314 84.523372,7.0072685 66.657757,19.900168 l 23.902685,23.902684 c 11.277448,-6.898594 24.236288,-10.559734 37.456378,-10.582214 39.77241,-7.9e-5 72.01434,32.241846 72.01426,72.014262 -0.0318,13.21538 -3.69956,26.16719 -10.60151,37.43708 l 23.94799,23.94799 c 12.8888,-17.87595 19.8404,-39.34715 19.87417,-61.38507 C 233.25173,47.115274 186.13644,0 128.01682,0 Z"
         fill="#abc2ab"
         id="path937"
         style="fill:#8ec07c;fill-opacity:1" />
      <path
         d="m 189.37588,190.56963 -23.90269,-23.90268 c -11.27745,6.89859 -24.23629,10.55974 -37.45637,10.58221 -39.772417,8e-5 -72.014343,-32.24185 -72.014264,-72.01426 0.03183,-13.215382 3.699547,-26.167196 10.60151,-37.437081 L 42.656067,43.849832 C 29.76725,61.725769 22.815686,83.196977 22.781918,105.2349 c 0,58.11962 47.115274,105.2349 105.234902,105.2349 22.03188,-0.0468 43.49344,-7.00726 61.35906,-19.90017 z"
         fill="#478061"
         id="path939"
         style="fill:#689d69;fill-opacity:0.466667" />
      <circle
         fill="#abc2ab"
         cx="128"
         cy="105.2349"
         r="33.503357"
         id="circle941"
         style="fill:#8ec07c;fill-opacity:1" />
    </g>
    <g
       id="g2661"
       inkscape:label="text">
      <path
         d="m 30.591915,124.81039 c -1.147564,0.81968 -2.192665,1.22952 -3.135303,1.22952 h -4.057453 c -0.573782,0 -1.024609,-0.10245 -1.352481,-0.30737 -0.327871,-0.20493 -0.59427,-0.51231 -0.799195,-0.92215 L 0.46842244,86.203138 C 0.38645233,86.121168 0.34546728,86.01871 0.34546728,85.895763 v -0.368865 c 0,-0.409842 0.14344762,-0.737718 0.43034287,-0.983628 C 1.1036817,84.256383 1.615986,84.11294 2.3127229,84.11294 H 27.579567 c 1.35248,0 2.233641,0.409841 2.643482,1.229525 L 43.010172,109.99455 78.85096,85.342465 c 1.188548,-0.819684 2.438574,-1.229525 3.750078,-1.229525 h 3.995963 c 0.532806,0 0.799208,0.225413 0.799208,0.67624 0,0.368856 -0.327871,0.819683 -0.983614,1.35248 z"
         fill="#000000"
         id="path943"
         style="fill:#1d2021;fill-opacity:1" />
      <path
         d="m 86.35303,126.03991 c -2.131187,0 -4.016463,-0.32787 -5.65583,-0.98362 -1.639384,-0.69673 -3.012366,-1.63937 -4.118944,-2.82792 -1.106579,-1.18855 -1.946755,-2.58201 -2.520528,-4.18039 -0.573773,-1.63938 -0.860659,-3.40171 -0.860659,-5.287 0,-2.41807 0.409842,-4.79516 1.229525,-7.13126 0.819683,-2.33611 1.946754,-4.56976 3.381213,-6.70095 1.475427,-2.131187 3.196763,-4.098434 5.16401,-5.901741 2.008232,-1.803315 4.180404,-3.360721 6.516517,-4.672216 2.377097,-1.311495 4.877141,-2.336103 7.500131,-3.073825 2.623008,-0.778698 5.307485,-1.168047 8.053425,-1.168047 h 30.12348 c 2.17218,0 4.07795,0.327871 5.71734,0.983614 1.68035,0.655752 3.07381,1.577903 4.18039,2.766451 1.10658,1.147555 1.94676,2.520527 2.52053,4.118918 0.57379,1.59839 0.86069,3.340224 0.86069,5.2255 0,2.418083 -0.43034,4.815666 -1.29101,7.192756 -0.8197,2.33611 -1.96726,4.56976 -3.44269,6.70094 -1.47544,2.13118 -3.21728,4.11893 -5.22551,5.96323 -2.00823,1.80331 -4.2009,3.3812 -6.57799,4.73368 -2.37708,1.3115 -4.87713,2.35661 -7.50013,3.13531 -2.62299,0.73772 -5.26649,1.10657 -7.93048,1.10657 z m 37.00886,-25.1439 c 1.35249,-2.868898 2.02874,-5.020573 2.02874,-6.455023 0,-1.188549 -0.43035,-2.008237 -1.29103,-2.459063 -0.81969,-0.450827 -2.04921,-0.67624 -3.68858,-0.67624 h -8.36081 c -1.18854,0 -2.29512,0.163935 -3.31974,0.491807 -0.98363,0.286895 -1.90577,0.7992 -2.76644,1.536913 -0.86067,0.737722 -1.70084,1.72135 -2.52053,2.950883 -0.77869,1.229526 -1.57788,2.766434 -2.39757,4.610723 l -2.950895,6.70095 c -1.557397,3.48367 -2.336095,6.10667 -2.336095,7.869 0,1.18854 0.348364,2.04921 1.045092,2.582 0.696746,0.49181 1.700862,0.73772 3.012348,0.73772 h 8.42229 c 1.27052,0 2.43858,-0.18443 3.50417,-0.55328 1.0656,-0.40985 2.09021,-1.04511 3.07383,-1.90578 0.98362,-0.86067 1.92626,-2.00823 2.82791,-3.44268 0.90166,-1.43445 1.8238,-3.19678 2.76644,-5.28698 z"
         fill="#000000"
         id="path945"
         style="fill:#1d2021;fill-opacity:1" />
      <path
         d="m 144.12269,126.03991 c -0.73771,0 -1.10657,-0.2459 -1.10657,-0.73771 0,-0.2459 0.0615,-0.55329 0.18444,-0.92215 l 17.27487,-38.668719 c 0.49183,-1.065594 1.27053,-1.59839 2.33613,-1.59839 h 21.14791 c 0.7787,0 1.16805,0.266394 1.16805,0.799182 0,0.24591 -0.082,0.512313 -0.24589,0.799208 L 167.6682,124.38005 c -0.49182,1.10658 -1.27052,1.65986 -2.33612,1.65986 z"
         fill="#000000"
         id="path947"
         style="fill:#1d2021;fill-opacity:1" />
      <path
         d="m 174.34897,126.03991 c -0.73772,0 -1.10657,-0.2459 -1.10657,-0.73771 0,-0.2459 0.0615,-0.55329 0.18443,-0.92215 l 17.27488,-38.668719 c 0.49182,-1.065594 1.27053,-1.59839 2.33612,-1.59839 h 49.42712 c 2.13119,0 4.01646,0.327871 5.65583,0.983614 1.63937,0.655752 3.01234,1.577903 4.11892,2.766451 1.10657,1.147555 1.94676,2.520527 2.52055,4.118918 0.57377,1.59839 0.86066,3.340224 0.86066,5.2255 0,2.500053 -0.43033,4.959116 -1.291,7.377186 -0.86067,2.37709 -2.04922,4.63123 -3.56565,6.76242 -1.47543,2.13118 -3.23775,4.09843 -5.28696,5.90174 -2.00824,1.80331 -4.2009,3.36072 -6.578,4.67221 -2.33611,1.27052 -4.79517,2.27464 -7.37717,3.01235 -2.58203,0.73772 -5.16404,1.10658 -7.74605,1.10658 z m 53.48456,-25.1439 c 1.3115,-2.950868 1.96725,-5.102543 1.96725,-6.455023 0,-1.188549 -0.40984,-2.008237 -1.22952,-2.459063 -0.81969,-0.450827 -2.00824,-0.67624 -3.56565,-0.67624 h -12.47973 l -12.17235,27.479996 h 12.41826 c 1.22953,0 2.37709,-0.18443 3.44269,-0.55328 1.06559,-0.40985 2.06971,-1.0451 3.01234,-1.90578 0.98363,-0.90166 1.92627,-2.04921 2.82792,-3.44268 0.94264,-1.43445 1.88528,-3.19678 2.82791,-5.28698 z"
         fill="#000000"
         id="path949"
         style="fill:#1d2021;fill-opacity:1" />
    </g>
  </g>
  <g
     inkscape:label="desert"
     id="layer1"
     sodipodi:insensitive="true"
     inkscape:groupmode="layer">
    <path
       id="rect2323-3"
       style="display:inline;opacity:1;fill:#282828;fill-opacity:1;fill-rule:evenodd;stroke:#9393ac;stroke-width:0"
       d="m 417.61207,157.52975 c -25.83914,0.71268 -50.74162,11.83049 -70.0595,28.73283 -16.25514,13.66883 -37.52225,22.02103 -58.91733,20.70882 -12.52289,-0.62741 -24.47789,-5.13316 -35.51315,-10.84409 -10.75217,-4.92394 -22.35459,-9.35027 -34.39657,-8.34246 -17.79355,1.01675 -34.22399,9.28185 -51.96226,10.61872 -9.06297,0.37912 -17.94434,-2.6022 -25.71149,-7.10468 -15.94093,-8.14896 -31.20999,-18.23456 -48.776935,-22.61267 -15.903745,-4.23784 -33.094259,-1.47591 -47.714734,5.73633 -8.421545,3.71792 -16.984088,8.51384 -26.486372,8.09583 -8.6238092,-0.4905 -11.4682662,-3.2972 -18.0737312021484,-4.3155 0.3955040021484,34.95556 0,73.80973 0,107.43173 C 170.98988,285.62661 355.78363,285.59061 507.90703,285.63461 c -1e-5,-35.70761 10e-4,-71.41623 10e-4,-107.12384 -26.65694,-3.60634 -50.65239,-17.85097 -77.50703,-20.51707 -4.25046,-0.3958 -8.52186,-0.52657 -12.78941,-0.46383 z"
       sodipodi:nodetypes="ccccccccccccccccc"
       inkscape:label="desert-1" />
    <path
       id="rect2323-5"
       style="display:inline;opacity:1;fill:#504945;fill-opacity:1;fill-rule:evenodd;stroke:#9393ac;stroke-width:0"
       d="m 469.46843,178.01098 c -34.44745,0.41785 -66.80934,14.02913 -97.77382,27.82722 -32.25076,13.54937 -68.67889,20.1711 -103.16726,11.92059 -26.66619,-6.88963 -47.46522,-27.14838 -74.12315,-34.11226 -15.66182,-4.65253 -32.34794,0.74602 -45.65114,9.27058 -18.5302,9.89903 -38.8137,19.14486 -60.341539,17.65565 -22.469019,-0.77678 -42.46333,-9.67475 -62.931288,-19.4947 -8.531667,-4.27617 -16.3122172,-7.71059 -25.4802352021484,-12.87518 0,34.32326 -0.2058559978516,75.09646 0,107.43173 C 165.42982,285.63461 339.35529,285.63361 507.90851,285.63361 c -2e-5,-35.70396 0,-71.40792 0,-107.11188 -12.81342,-0.16836 -25.62457,-0.54182 -38.44008,-0.51065 z"
       sodipodi:nodetypes="cccccccccccc"
       inkscape:label="desert-2" />
    <path
       id="rect2323-6"
       style="display:inline;opacity:1;fill:#665c54;fill-opacity:1;fill-rule:evenodd;stroke:#9393ac;stroke-width:0"
       d="M -2.2021484e-6,285.63351 C 169.30283,285.57451 338.60576,285.92297 507.90851,285.63351 c 0,-29.12489 -2e-5,-58.24978 0,-87.37467 -21.84123,7.15591 -43.84468,15.11685 -66.99505,16.45389 -17.72818,0.58285 -35.53436,-0.97637 -52.90583,-4.55318 -17.30868,-3.83601 -33.2316,-11.87935 -49.80219,-17.91216 -15.79067,-5.62362 -32.93237,-7.38903 -49.5318,-5.04426 -17.74891,2.41674 -34.88326,8.13035 -51.28882,15.19131 -10.54067,4.41524 -21.17405,8.94882 -32.51652,10.8416 -18.90353,3.33467 -38.11249,4.31141 -57.1338,6.7543 -26.02631,2.07356 -52.545224,2.97134 -78.208621,-2.69683 C 57.618554,214.73265 46.13972,210.26324 35.628016,204.11209 26.885339,199.49937 18.636582,193.93783 11.244574,187.36517 7.5066968,184.29852 3.7687268,181.23187 -2.2021485e-6,178.20316 c 0,35.81012 0,71.62024 10e-14,107.43035 z"
       sodipodi:nodetypes="cccccccccccccc"
       inkscape:label="desert-3" />
    <path
       id="rect2323-2"
       style="display:inline;opacity:1;fill:#7c6f64;fill-opacity:1;fill-rule:evenodd;stroke:#9393ac;stroke-width:0"
       d="m 507.90851,178.52163 c -23.26217,2.87228 -46.61223,16.97557 -65.14928,30.30814 -27.87046,19.34375 -63.85277,23.67354 -96.68114,17.66213 -38.0898,-6.18357 -70.10035,-28.93372 -110.98516,-30.70454 -29.99378,-1.14113 -54.40382,12.44644 -79.27197,24.55434 -24.97989,11.05953 -53.21276,18.14462 -80.424782,12.01681 -28.678263,-6.33074 -57.92018,-30.86446 -75.3961802021484,-54.15563 0,31.39685 -0.010979997852,77.66246 0,107.43173 C 34.47688,285.63461 365.76236,285.71531 507.90703,285.63461 c 0,-35.46374 -0.007,-70.01057 10e-4,-107.11298 z"
       inkscape:export-xdpi="96"
       inkscape:export-ydpi="96"
       sodipodi:nodetypes="ccccccccccc"
       inkscape:label="desert-4" />
  </g>
</svg>
